<svg width="75" height="75" viewBox="0 0 75 75" fill="none" xmlns="http://www.w3.org/2000/svg">
<path d="M75 37.5C75 58.2107 58.2107 75 37.5 75C16.7893 75 0 58.2107 0 37.5C0 16.7893 16.7893 0 37.5 0C58.2107 0 75 16.7893 75 37.5Z" fill="#B3DBCC"/>
<path fill-rule="evenodd" clip-rule="evenodd" d="M29.0452 16.125C29.7452 14.65 31.2552 13.625 33.0002 13.625H43.0002C44.7452 13.625 46.2527 14.65 46.9552 16.125C48.6627 16.14 49.9952 16.2175 51.1852 16.6825C52.6058 17.2382 53.8412 18.1825 54.7502 19.4075C55.6677 20.6425 56.1002 22.225 56.6902 24.4025L58.5452 31.2075L59.2452 33.31L59.3052 33.385C61.5577 36.27 60.4852 40.56 58.3402 49.1375C56.9752 54.595 56.2952 57.3225 54.2602 58.9125C52.2252 60.5 49.4127 60.5 43.7877 60.5H32.2127C26.5877 60.5 23.7752 60.5 21.7402 58.9125C19.7052 57.3225 19.0227 54.595 17.6602 49.1375C15.5152 40.56 14.4427 36.27 16.6952 33.385L16.7552 33.31L17.4552 31.2075L19.3102 24.4025C19.9027 22.225 20.3352 20.64 21.2502 19.405C22.1595 18.181 23.3949 17.2375 24.8152 16.6825C26.0052 16.2175 27.3352 16.1375 29.0452 16.125ZM29.0502 19.8825C27.3952 19.9 26.7302 19.9625 26.1802 20.1775C25.4151 20.4767 24.7497 20.9853 24.2602 21.645C23.8202 22.2375 23.5602 23.065 22.8352 25.7325L21.4102 30.955C23.9602 30.5 27.4452 30.5 32.2102 30.5H43.7877C48.5552 30.5 52.0377 30.5 54.5877 30.95L53.1652 25.7275C52.4402 23.06 52.1802 22.2325 51.7402 21.64C51.2507 20.9803 50.5853 20.4717 49.8202 20.1725C49.2702 19.9575 48.6052 19.895 46.9502 19.8775C46.5952 20.6246 46.0357 21.2558 45.3366 21.6978C44.6375 22.1399 43.8274 22.3747 43.0002 22.375H33.0002C32.1733 22.3749 31.3634 22.1405 30.6643 21.6989C29.9652 21.2573 29.4055 20.6291 29.0502 19.8825Z" fill="#F5F5F5"/>
</svg>
