<svg width="75" height="75" viewBox="0 0 75 75" fill="none" xmlns="http://www.w3.org/2000/svg">
<path d="M75 37.5C75 58.2107 58.2107 75 37.5 75C16.7893 75 0 58.2107 0 37.5C0 16.7893 16.7893 0 37.5 0C58.2107 0 75 16.7893 75 37.5Z" fill="#B3DBCC"/>
<g clip-path="url(#clip0_6450_717)">
<path fill-rule="evenodd" clip-rule="evenodd" d="M20.2679 30.75C21.5428 27.3415 23.8282 24.4037 26.8184 22.3296C29.8086 20.2555 33.3609 19.1442 37 19.1442C40.6391 19.1442 44.1914 20.2555 47.1816 22.3296C50.1718 24.4037 52.4572 27.3415 53.7321 30.75H20.2679ZM19.1643 36.1071C18.9425 40.5278 20.3704 44.8732 23.171 48.3007C25.9716 51.7282 29.9453 53.9935 34.3214 54.6571V44.6536L26.8429 36.1071H19.1643ZM39.6786 54.6571C44.0547 53.9935 48.0284 51.7282 50.829 48.3007C53.6296 44.8732 55.0575 40.5278 54.8357 36.1071H47.1571L39.6786 44.6536V54.6571ZM37 12C30.3696 12 24.0107 14.6339 19.3223 19.3223C14.6339 24.0107 12 30.3696 12 37C12 43.6304 14.6339 49.9893 19.3223 54.6777C24.0107 59.3661 30.3696 62 37 62C43.6304 62 49.9893 59.3661 54.6777 54.6777C59.3661 49.9893 62 43.6304 62 37C62 30.3696 59.3661 24.0107 54.6777 19.3223C49.9893 14.6339 43.6304 12 37 12Z" fill="#F5F5F5"/>
</g>
<defs>
<clipPath id="clip0_6450_717">
<rect width="50" height="50" fill="white" transform="translate(12 12)"/>
</clipPath>
</defs>
</svg>
