<svg width="75" height="75" viewBox="0 0 75 75" fill="none" xmlns="http://www.w3.org/2000/svg">
<path d="M75 37.5C75 58.2107 58.2107 75 37.5 75C16.7893 75 0 58.2107 0 37.5C0 16.7893 16.7893 0 37.5 0C58.2107 0 75 16.7893 75 37.5Z" fill="#B3DBCC"/>
<g clip-path="url(#clip0_6450_719)">
<path d="M46.5692 48.1111H57.4859C56.5692 36.0138 51.3609 28.4999 44.6803 24.0555L47.722 17.4166C47.8139 17.206 47.8521 16.9758 47.8332 16.7467C47.8143 16.5176 47.7388 16.2968 47.6135 16.1041C47.4883 15.9114 47.3171 15.7528 47.1155 15.6425C46.9138 15.5322 46.6879 15.4737 46.4581 15.4722H27.4164C27.1866 15.4737 26.9607 15.5322 26.759 15.6425C26.5573 15.7528 26.3862 15.9114 26.2609 16.1041C26.1357 16.2968 26.0602 16.5176 26.0413 16.7467C26.0223 16.9758 26.0606 17.206 26.1525 17.4166L27.8192 21.0277H41.8747L40.6247 23.8055H38.0553C38.8392 25.9158 39.416 28.0974 39.7775 30.3194C40.0094 31.6981 40.1578 33.0895 40.222 34.4861L38.0275 36.0277C38.0337 34.2312 37.885 32.4376 37.5831 30.6666C37.1998 28.3095 36.5378 26.0063 35.6109 23.8055H34.222C32.9392 25.4243 31.7874 27.1427 30.7775 28.9444C29.9629 30.4895 29.2709 32.0963 28.7081 33.7499L26.8053 32.4861C27.3619 30.8881 28.0446 29.337 28.847 27.8472C29.6593 26.451 30.5496 25.1016 31.5136 23.8055H29.0831L29.1942 24.0416C21.8331 28.9444 16.2359 37.5555 16.2359 51.9305C16.2171 52.2327 16.2584 52.5356 16.3573 52.8217C16.4563 53.1078 16.611 53.3715 16.8125 53.5975C17.0139 53.8235 17.2582 54.0073 17.5311 54.1384C17.804 54.2694 18.1002 54.3451 18.4025 54.3611H29.5136C29.0365 53.8645 28.7071 53.2449 28.5623 52.5717C28.4174 51.8985 28.4629 51.1983 28.6936 50.5494C28.9243 49.9006 29.3311 49.3288 29.8684 48.8982C30.4057 48.4675 31.0524 48.195 31.7359 48.1111C31.4032 47.5469 31.2259 46.9048 31.222 46.2499C31.222 45.2554 31.6171 44.3016 32.3203 43.5983C33.0236 42.895 33.9774 42.4999 34.972 42.4999H43.3053C44.2999 42.4999 45.2537 42.895 45.9569 43.5983C46.6602 44.3016 47.0553 45.2554 47.0553 46.2499C47.0624 46.9026 46.8946 47.5453 46.5692 48.1111Z" fill="white"/>
<path d="M41.9998 51.5832C41.9998 51.2149 41.8535 50.8616 41.593 50.6011C41.3325 50.3407 40.9792 50.1943 40.6109 50.1943H32.2776C31.9092 50.1943 31.5559 50.3407 31.2955 50.6011C31.035 50.8616 30.8887 51.2149 30.8887 51.5832C30.8887 51.9516 31.035 52.3049 31.2955 52.5653C31.5559 52.8258 31.9092 52.9721 32.2776 52.9721H40.6109C40.9792 52.9721 41.3325 52.8258 41.593 52.5653C41.8535 52.3049 41.9998 51.9516 41.9998 51.5832Z" fill="white"/>
<path d="M43.3052 44.6387H34.9719C34.6035 44.6387 34.2503 44.785 33.9898 45.0455C33.7293 45.3059 33.583 45.6592 33.583 46.0276C33.583 46.3959 33.7293 46.7492 33.9898 47.0097C34.2503 47.2701 34.6035 47.4164 34.9719 47.4164H43.3052C43.6736 47.4164 44.0269 47.2701 44.2873 47.0097C44.5478 46.7492 44.6941 46.3959 44.6941 46.0276C44.6941 45.6592 44.5478 45.3059 44.2873 45.0455C44.0269 44.785 43.6736 44.6387 43.3052 44.6387Z" fill="white"/>
<path d="M42.5552 55.75H34.2219C33.8535 55.75 33.5003 55.8963 33.2398 56.1568C32.9793 56.4173 32.833 56.7705 32.833 57.1389C32.833 57.5072 32.9793 57.8605 33.2398 58.121C33.5003 58.3814 33.8535 58.5278 34.2219 58.5278H42.5552C42.9236 58.5278 43.2769 58.3814 43.5373 58.121C43.7978 57.8605 43.9441 57.5072 43.9441 57.1389C43.9441 56.7705 43.7978 56.4173 43.5373 56.1568C43.2769 55.8963 42.9236 55.75 42.5552 55.75Z" fill="white"/>
<path d="M57.4168 55.75H47.6946C47.3262 55.75 46.9729 55.8963 46.7125 56.1568C46.452 56.4173 46.3057 56.7705 46.3057 57.1389C46.3057 57.5072 46.452 57.8605 46.7125 58.121C46.9729 58.3814 47.3262 58.5278 47.6946 58.5278H57.4168C57.7851 58.5278 58.1384 58.3814 58.3989 58.121C58.6593 57.8605 58.8057 57.5072 58.8057 57.1389C58.8057 56.7705 58.6593 56.4173 58.3989 56.1568C58.1384 55.8963 57.7851 55.75 57.4168 55.75Z" fill="white"/>
<path d="M58.8054 50.1943H49.0832C48.7149 50.1943 48.3616 50.3407 48.1011 50.6011C47.8407 50.8616 47.6943 51.2149 47.6943 51.5832C47.6943 51.9516 47.8407 52.3049 48.1011 52.5653C48.3616 52.8258 48.7149 52.9721 49.0832 52.9721H58.8054C59.1738 52.9721 59.5271 52.8258 59.7875 52.5653C60.048 52.3049 60.1943 51.9516 60.1943 51.5832C60.1943 51.2149 60.048 50.8616 59.7875 50.6011C59.5271 50.3407 59.1738 50.1943 58.8054 50.1943Z" fill="white"/>
</g>
<defs>
<clipPath id="clip0_6450_719">
<rect width="50" height="50" fill="white" transform="translate(12 12)"/>
</clipPath>
</defs>
</svg>
